# xmcd
#
# Track frame offsets:
# 150
# 20773
# 38735
# 56369
# 74693
# 88559
# 103678
# 119160
# 138299
#
# Disc length: 2091 seconds
#
#
# Revision: 0
# Processed by: cddbd v1.5.2PL0 Copyright (c) Steve Scherf et al.
# Submitted via: FreeRIP 2.945 
#
DISCID=7f082909
DTITLE=Ray Goodman and Brown - Ray Goodman and Brown II
DYEAR=1900
DGENRE=Soul
TTITLE0=Happy Anniversary
TTITLE1=I'll Remember You With Love
TTITLE2=Each Time Is Like The First Time
TTITLE3=Me
TTITLE4=My Prayer
TTITLE5=Sweet Sexy Woman
TTITLE6=Shoestrings
TTITLE7=You
TTITLE8=A Part Of You
EXTD=
EXTT0=
EXTT1=
EXTT2=
EXTT3=
EXTT4=
EXTT5=
EXTT6=
EXTT7=
EXTT8=
PLAYORDER=
